<svg width="1200" height="630" viewBox="0 0 1200 630" fill="none" xmlns="http://www.w3.org/2000/svg">
<path d="M0 0H1200V630H0V0Z" fill="white"/>
<path d="M185.273 268.909H198.182L224 312.364H225.091L250.909 268.909H263.818L230.182 323.636V362H218.909V323.636L185.273 268.909ZM296.341 363.455C289.614 363.455 283.811 361.97 278.932 359C274.083 356 270.341 351.818 267.705 346.455C265.098 341.061 263.795 334.788 263.795 327.636C263.795 320.485 265.098 314.182 267.705 308.727C270.341 303.242 274.008 298.97 278.705 295.909C283.432 292.818 288.947 291.273 295.25 291.273C298.886 291.273 302.477 291.879 306.023 293.091C309.568 294.303 312.795 296.273 315.705 299C318.614 301.697 320.932 305.273 322.659 309.727C324.386 314.182 325.25 319.667 325.25 326.182V330.727H271.432V321.455H314.341C314.341 317.515 313.553 314 311.977 310.909C310.432 307.818 308.22 305.379 305.341 303.591C302.492 301.803 299.129 300.909 295.25 300.909C290.977 300.909 287.28 301.97 284.159 304.091C281.068 306.182 278.689 308.909 277.023 312.273C275.356 315.636 274.523 319.242 274.523 323.091V329.273C274.523 334.545 275.432 339.015 277.25 342.682C279.098 346.318 281.659 349.091 284.932 351C288.205 352.879 292.008 353.818 296.341 353.818C299.159 353.818 301.705 353.424 303.977 352.636C306.28 351.818 308.265 350.606 309.932 349C311.598 347.364 312.886 345.333 313.795 342.909L324.159 345.818C323.068 349.333 321.235 352.424 318.659 355.091C316.083 357.727 312.902 359.788 309.114 361.273C305.326 362.727 301.068 363.455 296.341 363.455ZM396.534 292.182L370.716 362H359.807L333.989 292.182H345.625L364.898 347.818H365.625L384.898 292.182H396.534ZM421.42 320V362H410.693V268.909H421.42V303.091H422.33C423.966 299.485 426.42 296.621 429.693 294.5C432.996 292.348 437.39 291.273 442.875 291.273C447.633 291.273 451.799 292.227 455.375 294.136C458.951 296.015 461.723 298.909 463.693 302.818C465.693 306.697 466.693 311.636 466.693 317.636V362H455.966V318.364C455.966 312.818 454.527 308.53 451.648 305.5C448.799 302.439 444.845 300.909 439.784 300.909C436.269 300.909 433.117 301.652 430.33 303.136C427.572 304.621 425.39 306.788 423.784 309.636C422.208 312.485 421.42 315.939 421.42 320ZM515.591 363.455C508.864 363.455 503.061 361.97 498.182 359C493.333 356 489.591 351.818 486.955 346.455C484.348 341.061 483.045 334.788 483.045 327.636C483.045 320.485 484.348 314.182 486.955 308.727C489.591 303.242 493.258 298.97 497.955 295.909C502.682 292.818 508.197 291.273 514.5 291.273C518.136 291.273 521.727 291.879 525.273 293.091C528.818 294.303 532.045 296.273 534.955 299C537.864 301.697 540.182 305.273 541.909 309.727C543.636 314.182 544.5 319.667 544.5 326.182V330.727H490.682V321.455H533.591C533.591 317.515 532.803 314 531.227 310.909C529.682 307.818 527.47 305.379 524.591 303.591C521.742 301.803 518.379 300.909 514.5 300.909C510.227 300.909 506.53 301.97 503.409 304.091C500.318 306.182 497.939 308.909 496.273 312.273C494.606 315.636 493.773 319.242 493.773 323.091V329.273C493.773 334.545 494.682 339.015 496.5 342.682C498.348 346.318 500.909 349.091 504.182 351C507.455 352.879 511.258 353.818 515.591 353.818C518.409 353.818 520.955 353.424 523.227 352.636C525.53 351.818 527.515 350.606 529.182 349C530.848 347.364 532.136 345.333 533.045 342.909L543.409 345.818C542.318 349.333 540.485 352.424 537.909 355.091C535.333 357.727 532.152 359.788 528.364 361.273C524.576 362.727 520.318 363.455 515.591 363.455ZM571.545 320V362H560.818V292.182H571.182V303.091H572.091C573.727 299.545 576.212 296.697 579.545 294.545C582.879 292.364 587.182 291.273 592.455 291.273C597.182 291.273 601.318 292.242 604.864 294.182C608.409 296.091 611.167 299 613.136 302.909C615.106 306.788 616.091 311.697 616.091 317.636V362H605.364V318.364C605.364 312.879 603.939 308.606 601.091 305.545C598.242 302.455 594.333 300.909 589.364 300.909C585.939 300.909 582.879 301.652 580.182 303.136C577.515 304.621 575.409 306.788 573.864 309.636C572.318 312.485 571.545 315.939 571.545 320ZM635.693 362V292.182H646.42V362H635.693ZM641.148 280.545C639.057 280.545 637.254 279.833 635.739 278.409C634.254 276.985 633.511 275.273 633.511 273.273C633.511 271.273 634.254 269.561 635.739 268.136C637.254 266.712 639.057 266 641.148 266C643.239 266 645.027 266.712 646.511 268.136C648.027 269.561 648.784 271.273 648.784 273.273C648.784 275.273 648.027 276.985 646.511 278.409C645.027 279.833 643.239 280.545 641.148 280.545ZM666.068 362V292.182H676.795V362H666.068ZM671.523 280.545C669.432 280.545 667.629 279.833 666.114 278.409C664.629 276.985 663.886 275.273 663.886 273.273C663.886 271.273 664.629 269.561 666.114 268.136C667.629 266.712 669.432 266 671.523 266C673.614 266 675.402 266.712 676.886 268.136C678.402 269.561 679.159 271.273 679.159 273.273C679.159 275.273 678.402 276.985 676.886 278.409C675.402 279.833 673.614 280.545 671.523 280.545ZM733.898 362V268.909H745.17V352H788.443V362H733.898ZM848.443 333.455V292.182H859.17V362H848.443V350.182H847.716C846.08 353.727 843.534 356.742 840.08 359.227C836.625 361.682 832.261 362.909 826.989 362.909C822.625 362.909 818.746 361.955 815.352 360.045C811.958 358.106 809.292 355.197 807.352 351.318C805.413 347.409 804.443 342.485 804.443 336.545V292.182H815.17V335.818C815.17 340.909 816.595 344.97 819.443 348C822.322 351.03 825.989 352.545 830.443 352.545C833.11 352.545 835.822 351.864 838.58 350.5C841.367 349.136 843.701 347.045 845.58 344.227C847.489 341.409 848.443 337.818 848.443 333.455ZM909.182 292.182V301.273H873V292.182H909.182ZM883.545 275.455H894.273V342C894.273 345.03 894.712 347.303 895.591 348.818C896.5 350.303 897.652 351.303 899.045 351.818C900.47 352.303 901.97 352.545 903.545 352.545C904.727 352.545 905.697 352.485 906.455 352.364C907.212 352.212 907.818 352.091 908.273 352L910.455 361.636C909.727 361.909 908.712 362.182 907.409 362.455C906.106 362.758 904.455 362.909 902.455 362.909C899.424 362.909 896.455 362.258 893.545 360.955C890.667 359.652 888.273 357.667 886.364 355C884.485 352.333 883.545 348.97 883.545 344.909V275.455ZM945.864 363.636C941.439 363.636 937.424 362.803 933.818 361.136C930.212 359.439 927.348 357 925.227 353.818C923.106 350.606 922.045 346.727 922.045 342.182C922.045 338.182 922.833 334.939 924.409 332.455C925.985 329.939 928.091 327.97 930.727 326.545C933.364 325.121 936.273 324.061 939.455 323.364C942.667 322.636 945.894 322.061 949.136 321.636C953.379 321.091 956.818 320.682 959.455 320.409C962.121 320.106 964.061 319.606 965.273 318.909C966.515 318.212 967.136 317 967.136 315.273V314.909C967.136 310.424 965.909 306.939 963.455 304.455C961.03 301.97 957.348 300.727 952.409 300.727C947.288 300.727 943.273 301.848 940.364 304.091C937.455 306.333 935.409 308.727 934.227 311.273L924.045 307.636C925.864 303.394 928.288 300.091 931.318 297.727C934.379 295.333 937.712 293.667 941.318 292.727C944.955 291.758 948.53 291.273 952.045 291.273C954.288 291.273 956.864 291.545 959.773 292.091C962.712 292.606 965.545 293.682 968.273 295.318C971.03 296.955 973.318 299.424 975.136 302.727C976.955 306.03 977.864 310.455 977.864 316V362H967.136V352.545H966.591C965.864 354.061 964.652 355.682 962.955 357.409C961.258 359.136 959 360.606 956.182 361.818C953.364 363.03 949.924 363.636 945.864 363.636ZM947.5 354C951.742 354 955.318 353.167 958.227 351.5C961.167 349.833 963.379 347.682 964.864 345.045C966.379 342.409 967.136 339.636 967.136 336.727V326.909C966.682 327.455 965.682 327.955 964.136 328.409C962.621 328.833 960.864 329.212 958.864 329.545C956.894 329.848 954.97 330.121 953.091 330.364C951.242 330.576 949.742 330.758 948.591 330.909C945.803 331.273 943.197 331.864 940.773 332.682C938.379 333.47 936.439 334.667 934.955 336.273C933.5 337.848 932.773 340 932.773 342.727C932.773 346.455 934.152 349.273 936.909 351.182C939.697 353.061 943.227 354 947.5 354ZM997.443 362V292.182H1008.17V362H997.443ZM1002.9 280.545C1000.81 280.545 999.004 279.833 997.489 278.409C996.004 276.985 995.261 275.273 995.261 273.273C995.261 271.273 996.004 269.561 997.489 268.136C999.004 266.712 1000.81 266 1002.9 266C1004.99 266 1006.78 266.712 1008.26 268.136C1009.78 269.561 1010.53 271.273 1010.53 273.273C1010.53 275.273 1009.78 276.985 1008.26 278.409C1006.78 279.833 1004.99 280.545 1002.9 280.545Z" fill="black"/>
</svg>
