<svg width="183" height="32" viewBox="0 0 183 32" fill="none" xmlns="http://www.w3.org/2000/svg">
<path d="M5.312 5.136C5.696 5.136 6.02667 5.46667 6.304 6.128C5.45067 8.47467 5.024 10.672 5.024 12.72V13.808C5.024 16.1973 5.632 17.392 6.848 17.392C8.40533 17.392 9.472 14.6613 10.048 9.2C10.048 6.66133 10.272 5.392 10.72 5.392L11.232 5.328C11.68 5.328 11.9467 5.69067 12.032 6.416V17.2C12.032 23.92 10.9013 27.856 8.64 29.008C8.21333 29.2427 7.57333 29.4453 6.72 29.616C4.84267 29.616 2.70933 28.5173 0.32 26.32L0.224 25.936C0.224 25.4453 0.586667 25.136 1.312 25.008L3.84 26.8C4.82133 27.3333 5.55733 27.6 6.048 27.6H6.912C9.04533 27.6 10.112 24.304 10.112 17.712V17.328H9.824C9.01333 18.5867 7.97867 19.216 6.72 19.216C5.16267 19.216 4.064 18.2133 3.424 16.208C3.21067 15.4187 3.104 14.6187 3.104 13.808V13.52C3.44533 7.93067 4.18133 5.136 5.312 5.136ZM16.6755 14.512C17.5288 14.5333 18.9688 16.0267 20.9955 18.992L21.0595 19.536C21.0595 20.1333 19.5982 20.592 16.6755 20.912L16.5795 21.008V21.136C17.0275 23.056 17.4968 24.016 17.9875 24.016H18.3715C19.0542 24.016 20.0888 23.28 21.4755 21.808H21.6675C22.0942 21.808 22.4248 22.1173 22.6595 22.736C22.6595 23.248 21.7635 24.1333 19.9715 25.392C19.5022 25.6693 18.9368 25.872 18.2755 26C16.5475 26 15.3422 24.3787 14.6595 21.136C13.6782 20.9867 13.1875 20.5813 13.1875 19.92C13.1875 19.4507 13.5502 19.1413 14.2755 18.992V19.12L14.5955 18.992V18.192C14.5955 15.7387 15.2888 14.512 16.6755 14.512ZM16.8675 16.816H16.5795L16.4515 18V18.992H16.5795C17.7742 18.9493 18.3715 18.8213 18.3715 18.608C17.8168 17.776 17.3155 17.1787 16.8675 16.816ZM24.3693 15.216C24.8599 15.216 25.3933 16.3893 25.9693 18.736C26.7799 20.6133 27.2386 21.6053 27.3453 21.712C27.4519 21.712 27.8466 20.6453 28.5293 18.512C29.2119 16.3787 29.8626 15.312 30.4813 15.312C31.0573 15.5253 31.3453 15.8667 31.3453 16.336C29.5746 20.9013 28.6893 23.92 28.6893 25.392L28.0813 26H27.4733C26.7053 25.4453 25.4039 22.512 23.5693 17.2L23.2812 16.016C23.4306 15.4827 23.7933 15.216 24.3693 15.216ZM34.0458 8.336C34.6431 8.336 34.9418 9.06133 34.9418 10.512L35.3258 16.016H35.4538L37.0538 15.408C38.8458 15.408 39.9338 17.2427 40.3177 20.912C40.4671 21.9573 40.5417 23.4933 40.5417 25.52V28.112C40.5417 28.9227 40.2431 29.328 39.6458 29.328H39.5178C38.9418 29.2427 38.6538 28.9333 38.6538 28.4V25.392C38.6538 20.5707 38.1844 17.904 37.2458 17.392H37.0538C36.4138 17.392 35.9444 18.3733 35.6458 20.336V22.128C35.6458 25.328 35.3791 26.928 34.8458 26.928L34.2378 26.992C33.6404 26.992 33.3418 26.1067 33.3418 24.336C33.4058 22.4587 33.5338 20.9227 33.7258 19.728L33.0538 9.2C33.0538 8.64533 33.3844 8.35733 34.0458 8.336ZM44.9255 14.512C45.7788 14.5333 47.2188 16.0267 49.2455 18.992L49.3095 19.536C49.3095 20.1333 47.8482 20.592 44.9255 20.912L44.8295 21.008V21.136C45.2775 23.056 45.7468 24.016 46.2375 24.016H46.6215C47.3042 24.016 48.3388 23.28 49.7255 21.808H49.9175C50.3442 21.808 50.6748 22.1173 50.9095 22.736C50.9095 23.248 50.0135 24.1333 48.2215 25.392C47.7522 25.6693 47.1868 25.872 46.5255 26C44.7975 26 43.5922 24.3787 42.9095 21.136C41.9282 20.9867 41.4375 20.5813 41.4375 19.92C41.4375 19.4507 41.8002 19.1413 42.5255 18.992V19.12L42.8455 18.992V18.192C42.8455 15.7387 43.5388 14.512 44.9255 14.512ZM45.1175 16.816H44.8295L44.7015 18V18.992H44.8295C46.0242 18.9493 46.6215 18.8213 46.6215 18.608C46.0668 17.776 45.5655 17.1787 45.1175 16.816ZM56.2993 15.216C58.1126 15.3653 59.0193 16.2507 59.0193 17.872L59.0833 18.288L59.0193 23.28C59.0193 23.856 59.3499 24.6347 60.0113 25.616V25.68C59.8406 26.2987 59.5313 26.608 59.0833 26.608C57.7606 26.0533 57.0993 24.88 57.0993 23.088V22.672L57.0033 22.608L57.0993 22.48V22.416L57.1953 18C57.1953 17.3813 56.9286 17.072 56.3953 17.072H56.0113C54.9446 17.4987 54.4113 19.8347 54.4113 24.08C54.4113 25.552 54.0379 26.288 53.2913 26.288C52.7153 26.288 52.4166 25.9253 52.3953 25.2V22C52.3953 17.8613 52.7579 15.792 53.4833 15.792L53.8033 15.696L54.4753 15.792C55.0513 15.408 55.6593 15.216 56.2993 15.216ZM61.3983 9.328C62.2089 9.49867 62.6143 9.86133 62.6143 10.416C62.4009 11.0133 62.0596 11.312 61.5903 11.312C60.8009 11.1627 60.4062 10.768 60.4062 10.128C60.6196 9.59467 60.9503 9.328 61.3983 9.328ZM62.6143 13.808C62.9556 13.808 63.2436 14.1173 63.4783 14.736L63.1903 17.008V18.512C63.1903 20.2613 63.4889 22.5547 64.0863 25.392C63.8729 25.7973 63.5103 26 62.9983 26C62.1236 26 61.5476 23.44 61.2703 18.32V17.2C61.2703 14.9387 61.7183 13.808 62.6143 13.808ZM66.117 9.328C66.9277 9.49867 67.333 9.86133 67.333 10.416C67.1197 11.0133 66.7783 11.312 66.309 11.312C65.5197 11.1627 65.125 10.768 65.125 10.128C65.3383 9.59467 65.669 9.328 66.117 9.328ZM67.333 13.808C67.6743 13.808 67.9623 14.1173 68.197 14.736L67.909 17.008V18.512C67.909 20.2613 68.2077 22.5547 68.805 25.392C68.5917 25.7973 68.229 26 67.717 26C66.8423 26 66.2663 23.44 65.989 18.32V17.2C65.989 14.9387 66.437 13.808 67.333 13.808ZM84.0182 9.648C84.5303 9.648 84.8609 10.448 85.0103 12.048L85.1383 13.776C85.1383 15.0773 84.9036 18.4693 84.4343 23.952H84.6263V24.048L84.7543 23.952H85.0103L88.7543 24.24H89.0103L90.6103 23.76H90.8343C91.1756 23.9733 91.4103 24.272 91.5383 24.656C91.5383 25.4667 90.6316 25.968 88.8183 26.16L85.5543 25.84H84.9463L83.4103 26.256C82.8343 26.0427 82.5463 25.7013 82.5463 25.232L83.2183 14.256V13.776L83.0263 10.576C83.0263 10.0427 83.3569 9.73333 84.0182 9.648ZM93.888 16.368L94.464 16.048C94.976 16.048 95.3493 16.3573 95.584 16.976C95.2427 18.5547 95.072 20.176 95.072 21.84C95.072 22.672 95.3173 23.5787 95.808 24.56H96C96.6187 24.56 97.3547 22.1173 98.208 17.232C98.5067 16.976 98.7947 16.848 99.072 16.848C99.7333 16.848 100.064 18.0213 100.064 20.368C100.341 22.9493 100.651 24.24 100.992 24.24L101.472 24.048C102.091 24.2827 102.4 24.6133 102.4 25.04C102.016 25.8507 101.483 26.256 100.8 26.256C100.032 26.256 99.296 25.488 98.592 23.952C97.7387 25.744 96.8747 26.64 96 26.64C94.6987 26.64 93.792 25.2853 93.28 22.576L93.184 21.552V21.232C93.184 19.5253 93.4187 17.904 93.888 16.368ZM106.853 6.576C107.45 6.704 107.749 7.00267 107.749 7.472L107.557 8.88V9.296C107.557 10.2347 107.663 11.2267 107.877 12.272H107.941C110.415 11.5253 111.951 11.152 112.549 11.152C113.167 11.3227 113.477 11.632 113.477 12.08C113.477 12.8053 112.741 13.168 111.269 13.168L107.941 14.352C107.941 17.232 108.25 21.1467 108.869 26.096C108.741 26.672 108.431 26.96 107.941 26.96H107.877C107.13 26.96 106.757 26 106.757 24.08C106.479 22.6507 106.245 19.5467 106.053 14.768H105.477C103.471 14.64 102.469 14.1707 102.469 13.36C102.469 13.1253 102.693 12.8373 103.141 12.496H103.461L104.933 12.88H105.957L105.669 8.88C105.669 7.344 106.063 6.576 106.853 6.576ZM120.436 13.648C121.374 13.648 121.844 14.0213 121.844 14.768L121.556 15.376L121.364 21.232C121.364 23.8773 121.897 25.52 122.964 26.16L123.028 26.64C122.964 27.2587 122.676 27.568 122.164 27.568H121.972C120.372 26.48 119.572 24.816 119.572 22.576H119.348C118.494 24.9653 117.46 26.16 116.244 26.16C115.113 25.84 114.548 24.9973 114.548 23.632C114.548 20.624 115.753 17.6267 118.164 14.64C118.974 13.9787 119.732 13.648 120.436 13.648ZM116.564 22.352L116.436 23.248V23.856H116.756C118.356 19.8667 119.156 17.4347 119.156 16.56H119.028C117.79 17.9467 116.969 19.8773 116.564 22.352ZM124.18 9.328C124.99 9.49867 125.396 9.86133 125.396 10.416C125.182 11.0133 124.841 11.312 124.372 11.312C123.582 11.1627 123.188 10.768 123.188 10.128C123.401 9.59467 123.732 9.328 124.18 9.328ZM125.396 13.808C125.737 13.808 126.025 14.1173 126.26 14.736L125.972 17.008V18.512C125.972 20.2613 126.27 22.5547 126.868 25.392C126.654 25.7973 126.292 26 125.78 26C124.905 26 124.329 23.44 124.052 18.32V17.2C124.052 14.9387 124.5 13.808 125.396 13.808Z" fill="black"/>
</svg>
