<svg width="127" height="25" viewBox="0 0 127 25" fill="none" xmlns="http://www.w3.org/2000/svg">
<path d="M5.312 0.136C5.696 0.136 6.02667 0.466666 6.304 1.128C5.45067 3.47467 5.024 5.672 5.024 7.72V8.808C5.024 11.1973 5.632 12.392 6.848 12.392C8.40533 12.392 9.472 9.66133 10.048 4.2C10.048 1.66133 10.272 0.391998 10.72 0.391998L11.232 0.327999C11.68 0.327999 11.9467 0.690666 12.032 1.416V12.2C12.032 18.92 10.9013 22.856 8.64 24.008C8.21333 24.2427 7.57333 24.4453 6.72 24.616C4.84267 24.616 2.70933 23.5173 0.32 21.32L0.224 20.936C0.224 20.4453 0.586667 20.136 1.312 20.008L3.84 21.8C4.82133 22.3333 5.55733 22.6 6.048 22.6H6.912C9.04533 22.6 10.112 19.304 10.112 12.712V12.328H9.824C9.01333 13.5867 7.97867 14.216 6.72 14.216C5.16267 14.216 4.064 13.2133 3.424 11.208C3.21067 10.4187 3.104 9.61867 3.104 8.808V8.52C3.44533 2.93067 4.18133 0.136 5.312 0.136ZM16.6755 9.512C17.5288 9.53333 18.9688 11.0267 20.9955 13.992L21.0595 14.536C21.0595 15.1333 19.5982 15.592 16.6755 15.912L16.5795 16.008V16.136C17.0275 18.056 17.4968 19.016 17.9875 19.016H18.3715C19.0542 19.016 20.0888 18.28 21.4755 16.808H21.6675C22.0942 16.808 22.4248 17.1173 22.6595 17.736C22.6595 18.248 21.7635 19.1333 19.9715 20.392C19.5022 20.6693 18.9368 20.872 18.2755 21C16.5475 21 15.3422 19.3787 14.6595 16.136C13.6782 15.9867 13.1875 15.5813 13.1875 14.92C13.1875 14.4507 13.5502 14.1413 14.2755 13.992V14.12L14.5955 13.992V13.192C14.5955 10.7387 15.2888 9.512 16.6755 9.512ZM16.8675 11.816H16.5795L16.4515 13V13.992H16.5795C17.7742 13.9493 18.3715 13.8213 18.3715 13.608C17.8168 12.776 17.3155 12.1787 16.8675 11.816ZM24.3693 10.216C24.8599 10.216 25.3933 11.3893 25.9693 13.736C26.7799 15.6133 27.2386 16.6053 27.3453 16.712C27.4519 16.712 27.8466 15.6453 28.5293 13.512C29.2119 11.3787 29.8626 10.312 30.4813 10.312C31.0573 10.5253 31.3453 10.8667 31.3453 11.336C29.5746 15.9013 28.6893 18.92 28.6893 20.392L28.0813 21H27.4733C26.7053 20.4453 25.4039 17.512 23.5693 12.2L23.2812 11.016C23.4306 10.4827 23.7933 10.216 24.3693 10.216ZM34.0458 3.336C34.6431 3.336 34.9418 4.06133 34.9418 5.512L35.3258 11.016H35.4538L37.0538 10.408C38.8458 10.408 39.9338 12.2427 40.3177 15.912C40.4671 16.9573 40.5417 18.4933 40.5417 20.52V23.112C40.5417 23.9227 40.2431 24.328 39.6458 24.328H39.5178C38.9418 24.2427 38.6538 23.9333 38.6538 23.4V20.392C38.6538 15.5707 38.1844 12.904 37.2458 12.392H37.0538C36.4138 12.392 35.9444 13.3733 35.6458 15.336V17.128C35.6458 20.328 35.3791 21.928 34.8458 21.928L34.2378 21.992C33.6404 21.992 33.3418 21.1067 33.3418 19.336C33.4058 17.4587 33.5338 15.9227 33.7258 14.728L33.0538 4.2C33.0538 3.64533 33.3844 3.35733 34.0458 3.336ZM44.9255 9.512C45.7788 9.53333 47.2188 11.0267 49.2455 13.992L49.3095 14.536C49.3095 15.1333 47.8482 15.592 44.9255 15.912L44.8295 16.008V16.136C45.2775 18.056 45.7468 19.016 46.2375 19.016H46.6215C47.3042 19.016 48.3388 18.28 49.7255 16.808H49.9175C50.3442 16.808 50.6748 17.1173 50.9095 17.736C50.9095 18.248 50.0135 19.1333 48.2215 20.392C47.7522 20.6693 47.1868 20.872 46.5255 21C44.7975 21 43.5922 19.3787 42.9095 16.136C41.9282 15.9867 41.4375 15.5813 41.4375 14.92C41.4375 14.4507 41.8002 14.1413 42.5255 13.992V14.12L42.8455 13.992V13.192C42.8455 10.7387 43.5388 9.512 44.9255 9.512ZM45.1175 11.816H44.8295L44.7015 13V13.992H44.8295C46.0242 13.9493 46.6215 13.8213 46.6215 13.608C46.0668 12.776 45.5655 12.1787 45.1175 11.816ZM56.2993 10.216C58.1126 10.3653 59.0193 11.2507 59.0193 12.872L59.0833 13.288L59.0193 18.28C59.0193 18.856 59.3499 19.6347 60.0113 20.616V20.68C59.8406 21.2987 59.5313 21.608 59.0833 21.608C57.7606 21.0533 57.0993 19.88 57.0993 18.088V17.672L57.0033 17.608L57.0993 17.48V17.416L57.1953 13C57.1953 12.3813 56.9286 12.072 56.3953 12.072H56.0113C54.9446 12.4987 54.4113 14.8347 54.4113 19.08C54.4113 20.552 54.0379 21.288 53.2913 21.288C52.7153 21.288 52.4166 20.9253 52.3953 20.2V17C52.3953 12.8613 52.7579 10.792 53.4833 10.792L53.8033 10.696L54.4753 10.792C55.0513 10.408 55.6593 10.216 56.2993 10.216ZM61.3983 4.328C62.2089 4.49867 62.6143 4.86133 62.6143 5.416C62.4009 6.01333 62.0596 6.312 61.5903 6.312C60.8009 6.16267 60.4062 5.768 60.4062 5.128C60.6196 4.59467 60.9503 4.328 61.3983 4.328ZM62.6143 8.808C62.9556 8.808 63.2436 9.11733 63.4783 9.736L63.1903 12.008V13.512C63.1903 15.2613 63.4889 17.5547 64.0863 20.392C63.8729 20.7973 63.5103 21 62.9983 21C62.1236 21 61.5476 18.44 61.2703 13.32V12.2C61.2703 9.93867 61.7183 8.808 62.6143 8.808ZM66.117 4.328C66.9277 4.49867 67.333 4.86133 67.333 5.416C67.1197 6.01333 66.7783 6.312 66.309 6.312C65.5197 6.16267 65.125 5.768 65.125 5.128C65.3383 4.59467 65.669 4.328 66.117 4.328ZM67.333 8.808C67.6743 8.808 67.9623 9.11733 68.197 9.736L67.909 12.008V13.512C67.909 15.2613 68.2077 17.5547 68.805 20.392C68.5917 20.7973 68.229 21 67.717 21C66.8423 21 66.2663 18.44 65.989 13.32V12.2C65.989 9.93867 66.437 8.808 67.333 8.808ZM84.0182 4.648C84.5303 4.648 84.8609 5.448 85.0103 7.048L85.1383 8.776C85.1383 10.0773 84.9036 13.4693 84.4343 18.952H84.6263V19.048L84.7543 18.952H85.0103L88.7543 19.24H89.0103L90.6103 18.76H90.8343C91.1756 18.9733 91.4103 19.272 91.5383 19.656C91.5383 20.4667 90.6316 20.968 88.8183 21.16L85.5543 20.84H84.9463L83.4103 21.256C82.8343 21.0427 82.5463 20.7013 82.5463 20.232L83.2183 9.256V8.776L83.0263 5.576C83.0263 5.04267 83.3569 4.73333 84.0182 4.648ZM93.888 11.368L94.464 11.048C94.976 11.048 95.3493 11.3573 95.584 11.976C95.2427 13.5547 95.072 15.176 95.072 16.84C95.072 17.672 95.3173 18.5787 95.808 19.56H96C96.6187 19.56 97.3547 17.1173 98.208 12.232C98.5067 11.976 98.7947 11.848 99.072 11.848C99.7333 11.848 100.064 13.0213 100.064 15.368C100.341 17.9493 100.651 19.24 100.992 19.24L101.472 19.048C102.091 19.2827 102.4 19.6133 102.4 20.04C102.016 20.8507 101.483 21.256 100.8 21.256C100.032 21.256 99.296 20.488 98.592 18.952C97.7387 20.744 96.8747 21.64 96 21.64C94.6987 21.64 93.792 20.2853 93.28 17.576L93.184 16.552V16.232C93.184 14.5253 93.4187 12.904 93.888 11.368ZM106.853 1.576C107.45 1.704 107.749 2.00267 107.749 2.472L107.557 3.88V4.296C107.557 5.23467 107.663 6.22667 107.877 7.272H107.941C110.415 6.52533 111.951 6.152 112.549 6.152C113.167 6.32267 113.477 6.632 113.477 7.08C113.477 7.80533 112.741 8.168 111.269 8.168L107.941 9.352C107.941 12.232 108.25 16.1467 108.869 21.096C108.741 21.672 108.431 21.96 107.941 21.96H107.877C107.13 21.96 106.757 21 106.757 19.08C106.479 17.6507 106.245 14.5467 106.053 9.768H105.477C103.471 9.64 102.469 9.17067 102.469 8.36C102.469 8.12533 102.693 7.83733 103.141 7.496H103.461L104.933 7.88H105.957L105.669 3.88C105.669 2.344 106.063 1.576 106.853 1.576ZM120.436 8.648C121.374 8.648 121.844 9.02133 121.844 9.768L121.556 10.376L121.364 16.232C121.364 18.8773 121.897 20.52 122.964 21.16L123.028 21.64C122.964 22.2587 122.676 22.568 122.164 22.568H121.972C120.372 21.48 119.572 19.816 119.572 17.576H119.348C118.494 19.9653 117.46 21.16 116.244 21.16C115.113 20.84 114.548 19.9973 114.548 18.632C114.548 15.624 115.753 12.6267 118.164 9.64C118.974 8.97867 119.732 8.648 120.436 8.648ZM116.564 17.352L116.436 18.248V18.856H116.756C118.356 14.8667 119.156 12.4347 119.156 11.56H119.028C117.79 12.9467 116.969 14.8773 116.564 17.352ZM124.18 4.328C124.99 4.49867 125.396 4.86133 125.396 5.416C125.182 6.01333 124.841 6.312 124.372 6.312C123.582 6.16267 123.188 5.768 123.188 5.128C123.401 4.59467 123.732 4.328 124.18 4.328ZM125.396 8.808C125.737 8.808 126.025 9.11733 126.26 9.736L125.972 12.008V13.512C125.972 15.2613 126.27 17.5547 126.868 20.392C126.654 20.7973 126.292 21 125.78 21C124.905 21 124.329 18.44 124.052 13.32V12.2C124.052 9.93867 124.5 8.808 125.396 8.808Z" fill="white"/>
</svg>
